# Blender 5.1.0
# www.blender.org
mtllib SchoolHallwayPanel.mtl
o current
v -67.719559 11.552886 -23.880783
v -67.719559 47.366505 -23.880783
v -67.719559 11.552886 -25.099670
v -67.719559 47.366505 -25.099670
v 87.933716 11.552886 -23.880783
v 87.933716 47.366505 -23.880783
v 87.933716 11.552886 -25.099670
v 87.933716 47.366505 -25.099670
v -66.537117 11.552886 -25.099670
v -66.537117 47.366505 -25.099670
v -66.537117 11.552886 -23.880783
v -66.537117 47.366505 -23.880783
v -67.719559 11.552886 25.465073
v -67.719559 47.366505 25.465073
v -66.537117 47.366505 25.465073
v -66.537117 11.552886 25.465073
v 86.970680 47.366505 -25.099670
v 86.970680 11.552886 -23.880783
v 86.970680 11.552886 -25.099670
v 86.970680 47.366505 -23.880783
v 87.933716 47.366505 26.037384
v 87.933716 11.552886 26.037384
v 86.970680 11.552886 26.037384
v 86.970680 47.366505 26.037384
v -106.793152 11.552886 -25.099670
v -106.793152 11.552886 -23.880783
v -106.793152 47.366505 -23.880783
v -106.793152 47.366505 -25.099670
v -67.719559 47.366505 24.338356
v -66.537117 47.366505 24.338356
v -66.537117 11.552886 24.338356
v -67.719559 11.552886 24.338356
v 19.503780 47.366505 25.465073
v 19.503780 11.552886 25.465073
v 19.503780 47.366505 24.338356
v 19.503780 11.552886 24.338356
v 87.933716 11.552886 24.433945
v 86.970680 11.552886 24.433945
v 86.970680 47.366505 24.433945
v 87.933716 47.366505 24.433945
v 32.916645 47.366505 26.037384
v 32.916645 11.552886 26.037384
v 32.916645 11.552886 24.433945
v 32.916645 47.366505 24.433945
v -67.719559 29.701715 -23.880783
v -67.719559 29.701715 -25.099670
v 87.933716 29.701715 -25.099670
v 87.933716 29.701715 -23.880783
v -66.537117 29.701715 -23.880783
v -66.537117 29.701715 -25.099670
v -67.719559 29.701715 25.465073
v -66.537117 29.701715 25.465073
v 86.970680 29.701715 -23.880783
v 86.970680 29.701715 -25.099670
v 87.933716 29.701715 26.037384
v 86.970680 29.701715 26.037384
v -106.793152 29.701715 -23.880783
v -106.793152 29.701715 -25.099670
v -67.719559 29.701715 24.338356
v -66.537117 29.701715 24.338356
v 19.503780 29.701715 25.465073
v 19.503780 29.701715 24.338356
v 87.933716 29.701715 24.433945
v 86.970680 29.701715 24.433945
v 32.916645 29.701715 26.037384
v 32.916645 29.701715 24.433945
v 19.503780 47.366505 25.465073
v 19.503780 47.366505 24.338356
v 32.916645 47.366505 26.037384
v 32.916645 47.366505 24.433945
v 32.916645 29.701715 24.433945
v 19.503780 29.701715 25.465073
v 19.503780 29.701715 24.338356
v 32.916645 29.701715 26.037384
v 19.503780 47.366505 25.465073
v 19.503780 47.366505 24.338356
v 32.916645 47.366505 26.037384
v 32.916645 47.366505 24.433945
v 32.916645 29.701715 24.433945
v 19.503780 29.701715 25.465073
v 19.503780 29.701715 24.338356
v 32.916645 29.701715 26.037384
v 19.503780 47.366505 25.465073
v 19.503780 47.366505 24.338356
v 32.916645 47.366505 26.037384
v 32.916645 47.366505 24.433945
v 32.916645 29.701715 24.433945
v 19.503780 29.701715 25.465073
v 19.503780 29.701715 24.338356
v 32.916645 29.701715 26.037384
v 27.534824 47.366505 26.037384
v 27.534824 47.366505 24.433945
v 27.534824 29.701715 24.433945
v 27.534824 29.701715 26.037384
v 19.503780 47.366505 26.037384
v -66.537117 47.366505 26.037384
v -66.537117 29.701715 26.037384
v 19.503780 29.701715 26.037384
v -54.792400 11.552886 -25.099670
v -54.792400 47.366505 -23.880783
v -54.792400 47.366505 -25.099670
v -54.792400 11.552886 -23.880783
v -54.792400 29.701715 -25.099670
v -54.792400 29.701715 -23.880783
v -40.871861 47.366505 -25.099670
v -40.871861 11.552886 -23.880783
v -40.871861 29.701715 -25.099670
v -40.871861 11.552886 -25.099670
v -40.871861 47.366505 -23.880783
v -40.871861 29.701715 -23.880783
v 82.076912 47.366505 -25.099670
v 82.076912 11.552886 -23.880783
v 82.076912 29.701715 -25.099670
v 82.076912 11.552886 -25.099670
v 82.076912 47.366505 -23.880783
v 82.076912 29.701715 -23.880783
v 69.274353 11.552886 -25.099670
v 69.274353 47.366505 -23.880783
v 69.274353 29.701715 -23.880783
v 69.274353 47.366505 -25.099670
v 69.274353 11.552886 -23.880783
v 69.274353 29.701715 -25.099670
v -66.537117 29.701715 26.001431
v -66.537117 11.552886 26.001431
v 19.503780 29.701715 26.001431
v 19.503780 11.552886 26.001431
v -66.537117 29.701715 24.338356
v 19.503780 29.701715 24.338356
v -66.537117 29.701715 26.037384
v 19.503780 29.701715 26.037384
v -66.537117 29.701715 24.338356
v 19.503780 29.701715 24.338356
v -66.537117 29.701715 26.037384
v 19.503780 29.701715 26.037384
v -66.537117 29.701715 26.037384
v 19.503780 29.701715 26.037384
v -66.537117 11.701644 24.338356
v 19.503780 11.701644 24.338356
v -66.537117 11.701644 26.037384
v 19.503780 11.701644 26.037384
vn -0.0000 -0.0000 -1.0000
vn 1.0000 -0.0000 -0.0000
vn -0.0000 1.0000 -0.0000
vn -0.0000 -1.0000 -0.0000
vn -0.0000 -0.0000 1.0000
vn -1.0000 -0.0000 -0.0000
vn 0.0119 -0.0000 -0.9999
vt 0.533115 0.250000
vt 0.375000 0.250000
vt 0.533115 0.498453
vt 0.625000 0.498453
vt 0.625000 0.500000
vt 0.533115 0.500000
vt 0.625000 0.750000
vt 0.533115 0.750000
vt 0.873101 0.750000
vt 0.875000 0.750000
vt 0.373453 0.500000
vt 0.375000 0.500000
vt 0.375000 0.750000
vt 0.373453 0.750000
vt 0.873101 0.500000
vt 0.875000 0.500000
vt 0.854237 0.500000
vt 0.854237 0.750000
vt 0.125000 0.500000
vt 0.126899 0.500000
vt 0.126899 0.750000
vt 0.125000 0.750000
vt 0.533115 0.979237
vt 0.625000 0.979237
vt 0.625000 0.998101
vt 0.533115 0.998101
vt 0.625000 0.250000
vt 0.625000 0.251899
vt 0.533115 0.251899
vt 0.533115 0.998101
vt 0.625000 1.000000
vt 0.533115 1.000000
vt 0.533115 0.000000
vt 0.375000 0.000000
vt 0.374227 0.750773
vt 0.626547 0.500000
vt 0.626547 0.750000
vt 0.365593 0.500000
vt 0.365593 0.750000
vt 0.533115 0.490593
vt 0.625000 0.490593
vt 0.625000 0.751547
vt 0.533115 0.751547
vt 0.625773 0.750773
vt 0.625000 0.000000
vt 0.533115 0.751547
vt 0.375000 0.751547
vt 0.533320 0.750773
vt 0.533320 0.750773
vt 0.375000 0.998101
vt 0.375000 0.490593
vt 0.375000 0.498453
vt 0.375000 1.000000
vt 0.375000 0.251899
vt 0.375000 0.979237
vt 0.533115 0.270763
vt 0.375000 0.270763
vt 0.625000 0.270763
vt 0.145763 0.500000
vt 0.145763 0.750000
vt 0.533115 0.956879
vt 0.625000 0.956879
vt 0.831879 0.500000
vt 0.831879 0.750000
vt 0.654969 0.500000
vt 0.654969 0.750000
vt 0.533115 0.779969
vt 0.625000 0.779969
vt 0.375000 0.779969
vt 0.375000 0.956879
vt 0.625000 0.293121
vt 0.533115 0.293121
vt 0.168121 0.500000
vt 0.168121 0.750000
vt 0.533115 0.759407
vt 0.375000 0.759407
vt 0.625000 0.759407
vt 0.634407 0.500000
vt 0.634407 0.750000
vt 0.533115 0.470031
vt 0.625000 0.470031
vt 0.345031 0.500000
vt 0.345031 0.750000
vt 0.375000 0.293121
vt 0.375000 0.470031
s 0
f 46/1/1 3/2/1 25/2/1 58/1/1
f 54/3/1 17/4/1 8/5/1 47/6/1
f 47/6/2 8/5/2 6/7/2 48/8/2
f 30/9/3 29/10/3 14/10/3 15/9/3
f 19/11/4 7/12/4 5/13/4 18/14/4
f 10/15/3 4/16/3 2/10/3 12/9/3
f 101/17/3 10/15/3 12/9/3 100/18/3
f 3/19/4 9/20/4 11/21/4 1/22/4
f 104/23/5 100/24/5 12/25/5 49/26/5
f 46/1/1 4/27/1 10/28/1 50/29/1
f 52/30/5 15/25/5 14/31/5 51/32/5
f 60/30/1 30/25/1 35/25/1 62/26/1
f 32/22/4 31/21/4 16/21/4 13/22/4
f 59/33/6 32/34/6 13/34/6 51/33/6
f 38/35/4 37/13/4 22/13/4 23/14/4
f 8/5/3 17/36/3 20/37/3 6/7/3
f 114/38/4 19/11/4 18/14/4 112/39/4
f 113/40/1 111/41/1 17/4/1 54/3/1
f 55/8/5 21/7/5 24/42/5 56/43/5
f 38/35/4 23/14/4 42/14/4 43/35/4
f 63/8/2 40/7/2 21/7/2 55/8/2
f 40/7/3 39/44/3 24/37/3 21/7/3
f 57/33/6 27/45/6 28/27/6 58/1/6
f 45/33/5 2/45/5 27/45/5 57/33/5
f 2/10/3 4/16/3 28/16/3 27/10/3
f 3/19/4 1/22/4 26/22/4 25/19/4
f 45/33/6 1/34/6 32/34/6 59/33/6
f 1/22/4 11/21/4 31/21/4 32/22/4
f 49/26/2 12/25/2 30/25/2 60/30/2
f 12/9/3 2/10/3 29/10/3 30/9/3
f 62/26/3 35/25/3 68/25/3 73/26/3
f 16/21/4 34/21/4 126/21/4 124/21/4
f 16/21/4 31/21/4 36/21/4 34/21/4
f 30/9/3 15/9/3 33/9/3 35/9/3
f 6/7/3 20/37/3 39/44/3 40/7/3
f 48/8/2 6/7/2 40/7/2 63/8/2
f 53/46/6 18/47/6 38/35/6 64/48/6
f 18/14/4 5/13/4 37/13/4 38/35/4
f 66/49/6 43/35/6 42/47/6 65/46/6
f 64/48/1 38/35/1 43/35/1 66/49/1
f 56/43/5 24/42/5 41/42/5 65/46/5
f 24/37/3 39/44/3 44/44/3 41/37/3
f 23/47/5 56/43/5 65/46/5 42/47/5
f 39/44/1 64/48/1 66/49/1 44/44/1
f 61/26/3 62/26/3 73/26/3 72/26/3
f 20/42/6 53/46/6 64/48/6 39/44/6
f 5/13/2 48/8/2 63/8/2 37/13/2
f 15/25/6 52/30/6 97/30/6 96/25/6
f 36/50/2 62/26/2 61/26/2 34/50/2
f 11/50/2 49/26/2 60/30/2 31/50/2
f 2/45/6 45/33/6 59/33/6 29/45/6
f 1/34/5 45/33/5 57/33/5 26/34/5
f 26/34/6 57/33/6 58/1/6 25/2/6
f 37/13/2 63/8/2 55/8/2 22/13/2
f 22/13/5 55/8/5 56/43/5 23/47/5
f 114/51/1 113/40/1 54/3/1 19/52/1
f 29/45/6 59/33/6 51/33/6 14/45/6
f 97/30/3 98/26/3 130/26/3 129/30/3
f 16/50/5 52/30/5 51/32/5 13/53/5
f 3/2/1 46/1/1 50/29/1 9/54/1
f 102/55/5 104/23/5 49/26/5 11/50/5
f 7/12/2 47/6/2 48/8/2 5/13/2
f 19/52/1 54/3/1 47/6/1 7/12/1
f 4/27/1 46/1/1 58/1/1 28/27/1
f 73/26/3 68/25/3 76/25/3 81/26/3
f 71/49/3 74/46/3 82/46/3 79/49/3
f 44/44/3 66/49/3 71/49/3 70/44/3
f 66/49/3 65/46/3 74/46/3 71/49/3
f 65/46/3 41/42/3 69/42/3 74/46/3
f 41/37/3 44/44/3 70/44/3 69/37/3
f 33/25/3 61/26/3 72/26/3 67/25/3
f 35/9/3 33/9/3 67/9/3 68/9/3
f 75/25/3 80/26/3 88/26/3 83/25/3
f 82/46/3 77/42/3 85/42/3 90/46/3
f 70/44/3 71/49/3 79/49/3 78/44/3
f 68/9/3 67/9/3 75/9/3 76/9/3
f 72/26/3 73/26/3 81/26/3 80/26/3
f 74/46/3 69/42/3 77/42/3 82/46/3
f 67/25/3 72/26/3 80/26/3 75/25/3
f 69/37/3 70/44/3 78/44/3 77/37/3
f 89/26/2 84/25/2 83/25/2 88/26/2
f 90/46/5 85/42/5 91/42/5 94/46/5
f 77/37/3 78/44/3 86/44/3 85/37/3
f 79/49/3 82/46/3 90/46/3 87/49/3
f 81/26/3 76/25/3 84/25/3 89/26/3
f 78/44/3 79/49/3 87/49/3 86/44/3
f 76/9/3 75/9/3 83/9/3 84/9/3
f 80/26/3 81/26/3 89/26/3 88/26/3
f 92/44/6 93/49/6 94/46/6 91/42/6
f 85/37/3 86/44/3 92/44/3 91/37/3
f 87/49/4 90/46/4 94/46/4 93/49/4
f 86/44/1 87/49/1 93/49/1 92/44/1
f 96/25/5 97/30/5 98/26/5 95/25/5
f 33/9/3 15/9/3 96/9/3 95/9/3
f 61/26/2 33/25/2 95/25/2 98/26/2
f 52/30/4 61/26/4 98/26/4 97/30/4
f 9/54/1 50/29/1 103/56/1 99/57/1
f 50/29/1 10/28/1 101/58/1 103/56/1
f 9/20/4 99/59/4 102/60/4 11/21/4
f 110/61/5 109/62/5 100/24/5 104/23/5
f 105/63/3 101/17/3 100/18/3 109/64/3
f 120/65/3 105/63/3 109/64/3 118/66/3
f 119/67/5 118/68/5 109/62/5 110/61/5
f 121/69/5 119/67/5 110/61/5 106/70/5
f 103/56/1 101/58/1 105/71/1 107/72/1
f 99/59/4 108/73/4 106/74/4 102/60/4
f 18/47/5 53/46/5 116/75/5 112/76/5
f 53/46/5 20/42/5 115/77/5 116/75/5
f 17/36/3 111/78/3 115/79/3 20/37/3
f 122/80/1 120/81/1 111/41/1 113/40/1
f 112/39/3 114/38/3 117/82/3 121/83/3
f 108/73/4 117/82/4 121/83/4 106/74/4
f 107/72/1 105/71/1 120/81/1 122/80/1
f 108/84/1 107/72/1 122/80/1 117/85/1
f 116/75/5 115/77/5 118/68/5 119/67/5
f 111/78/3 120/65/3 118/66/3 115/79/3
f 114/38/6 112/39/6 116/75/6 113/40/6
f 122/80/4 113/40/4 116/75/4 119/67/4
f 121/83/2 117/82/2 122/80/2 119/67/2
f 102/60/2 99/59/2 103/56/2 104/23/2
f 108/73/6 106/74/6 110/61/6 107/72/6
f 110/61/4 104/23/4 103/56/4 107/72/4
f 42/14/3 43/35/3 36/21/3 34/21/3
f 60/30/3 62/26/3 128/26/3 127/30/3
f 34/50/2 61/26/2 125/26/2 126/50/2
f 52/30/6 16/50/6 124/50/6 123/30/6
f 61/26/3 52/30/3 123/30/3 125/26/3
f 129/30/3 130/26/3 134/26/3 133/30/3
f 127/30/3 128/26/3 132/26/3 131/30/3
f 133/30/3 134/26/3 136/26/3 135/30/3
f 135/30/5 139/30/5 140/26/5 136/26/5
f 131/30/1 132/26/1 138/26/1 137/30/1
f 91/42/5 95/25/5 98/26/5 94/46/5
f 89/26/7 84/25/7 92/44/7 93/49/7
f 98/26/4 89/26/4 93/49/4 94/46/4
f 84/25/3 95/25/3 91/42/3 92/44/3
