# WaveFront *.obj file (generated by CINEMA 4D)

mtllib ./D1.mtl

v 1669.6220703125 289.16519165039062 5720.533203125
v 1773.9720458984375 260.50729370117188 5642.96728515625
v 1723.60986328125 299.11679077148438 5620.60498046875
v 1766.02880859375 260.50729370117188 5603.03466796875
v 1724.4676513671875 289.16519165039062 5697.8154296875
v 1743.4085693359375 260.50729370117188 5569.18115234375
v 1691.9844970703125 299.11679077148438 5588.9794921875
v 1709.5550537109375 260.50729370117188 5546.560546875
v 1614.7764892578125 289.16519165039062 5588.1240234375
v 1669.6220703125 260.50729370117188 5538.61767578125
v 1647.259521484375 299.11679077148438 5588.9794921875
v 1629.68896484375 260.50729370117188 5546.560546875
v 1669.6220703125 289.2088623046875 5565.46826171875
v 1595.83544921875 260.50729370117188 5569.18115234375
v 1615.6341552734375 299.11679077148438 5620.60498046875
v 1573.2152099609375 260.50729370117188 5603.03466796875
v 1724.4676513671875 289.16519165039062 5588.1240234375
v 1565.27197265625 260.50729370117188 5642.96728515625
v 1615.6341552734375 299.11679077148438 5665.330078125
v 1573.2152099609375 260.50729370117188 5682.900390625
v 1614.7764892578125 289.16519165039062 5697.8154296875
v 1595.83544921875 260.50729370117188 5716.75390625
v 1647.259521484375 299.11679077148438 5696.95556640625
v 1629.68896484375 260.50729370117188 5739.37451171875
v 1747.1854248046875 289.16519165039062 5642.9697265625
v 1669.6220703125 260.50729370117188 5747.3173828125
v 1691.9844970703125 299.11679077148438 5696.95556640625
v 1709.5550537109375 260.50729370117188 5739.37451171875
v 1592.0587158203125 289.16519165039062 5642.9697265625
v 1743.4085693359375 260.50729370117188 5716.75390625
v 1723.60986328125 299.11679077148438 5665.330078125
v 1766.02880859375 260.50729370117188 5682.900390625
v 1669.6220703125 169.72279357910156 5642.96728515625
v 1773.9720458984375 266.76828002929688 5642.96728515625
v 1770.00048828125 265.20303344726562 5662.93408203125
v 1766.02880859375 266.76828002929688 5603.03466796875
v 1693.7237548828125 192.41891479492188 5632.984375
v 1743.4085693359375 266.76828002929688 5569.18115234375
v 1584.5252685546875 262.07254028320312 5699.8271484375
v 1709.5550537109375 266.76828002929688 5546.560546875
v 1679.6053466796875 192.41891479492188 5618.86572265625
v 1669.6220703125 266.76828002929688 5538.61767578125
v 1612.76220703125 262.07254028320312 5728.064453125
v 1629.68896484375 266.76828002929688 5546.560546875
v 1659.6387939453125 192.41891479492188 5618.86572265625
v 1595.83544921875 266.76828002929688 5569.18115234375
v 1612.76220703125 265.20303344726562 5728.064453125
v 1573.2152099609375 266.76828002929688 5603.03466796875
v 1645.5203857421875 192.41891479492188 5632.984375
v 1565.27197265625 266.76828002929688 5642.96728515625
v 1770.00048828125 262.07254028320312 5662.93408203125
v 1573.2152099609375 266.76828002929688 5682.900390625
v 1645.5203857421875 192.41891479492188 5652.95068359375
v 1595.83544921875 266.76828002929688 5716.75390625
v 1649.655517578125 265.20303344726562 5743.345703125
v 1629.68896484375 266.76828002929688 5739.37451171875
v 1659.6387939453125 192.41891479492188 5667.0693359375
v 1669.6220703125 266.76828002929688 5747.3173828125
v 1770.00048828125 262.07254028320312 5623.0009765625
v 1709.5550537109375 266.76828002929688 5739.37451171875
v 1679.6053466796875 192.41891479492188 5667.0693359375
v 1743.4085693359375 266.76828002929688 5716.75390625
v 1649.655517578125 262.07254028320312 5743.345703125
v 1766.02880859375 266.76828002929688 5682.900390625
v 1693.7237548828125 192.41891479492188 5652.95068359375
v 1584.5252685546875 265.20303344726562 5699.8271484375
v 1754.71875 262.07254028320312 5699.8271484375
v 1754.71875 262.07254028320312 5586.10791015625
v 1754.71875 265.20303344726562 5586.10791015625
v 1689.5885009765625 265.20303344726562 5743.345703125
v 1726.4818115234375 262.07254028320312 5557.87060546875
v 1726.4818115234375 265.20303344726562 5557.87060546875
v 1726.4818115234375 265.20303344726562 5728.064453125
v 1689.5885009765625 265.20303344726562 5542.5888671875
v 1754.71875 265.20303344726562 5699.8271484375
v 1689.5885009765625 262.07254028320312 5542.5888671875
v 1649.655517578125 262.07254028320312 5542.5888671875
v 1649.655517578125 265.20303344726562 5542.5888671875
v 1770.00048828125 265.20303344726562 5623.0009765625
v 1612.76220703125 265.20303344726562 5557.87060546875
v 1612.76220703125 262.07254028320312 5557.87060546875
v 1689.5885009765625 262.07254028320312 5743.345703125
v 1584.5252685546875 265.20303344726562 5586.10791015625
v 1726.4818115234375 262.07254028320312 5728.064453125
v 1584.5252685546875 262.07254028320312 5586.10791015625
v 1569.24365234375 265.20303344726562 5623.0009765625
v 1569.24365234375 262.07254028320312 5623.0009765625
v 1569.24365234375 265.20303344726562 5662.93408203125
v 1569.24365234375 262.07254028320312 5662.93408203125
# 89 vertices

vn 0.53898465633392 0.81219017505646 0.22325479984283
vn 0.53898465633392 0.81219017505646 0.22325479984283
vn 0.53898465633392 0.81219017505646 0.22325479984283
vn 0.53898465633392 0.81219017505646 0.22325479984283
vn -0.38888865709305 0.92128479480743 0
vn -0.38888865709305 0.92128479480743 0
vn -0.38888865709305 0.92128479480743 0
vn 0 0 0
vn -0.19509024918079 0 -0.9807853102684
vn -0.19509007036686 0 -0.9807853102684
vn -0.19509007036686 0 -0.9807853102684
vn -0.19509024918079 0 -0.9807853102684
vn -0.27496963739395 0.92129439115524 0.27496963739395
vn -0.27496963739395 0.92129439115524 0.27496963739395
vn -0.27496963739395 0.92129439115524 0.27496963739395
vn 0 0 0
vn -0.22330220043659 0.8121612071991 -0.53900861740112
vn -0.22330220043659 0.8121612071991 -0.53900861740112
vn -0.22330220043659 0.8121612071991 -0.53900861740112
vn -0.22330220043659 0.8121612071991 -0.53900861740112
vn -0.22040836513042 0.81748247146606 0.53211146593094
vn -0.22040836513042 0.81748247146606 0.53211146593094
vn -0.22040836513042 0.81748247146606 0.53211146593094
vn -0.22040836513042 0.81748247146606 0.53211146593094
vn 0.53899931907654 0.81217873096466 -0.22326084971428
vn 0.53899931907654 0.81217873096466 -0.22326084971428
vn 0.53899931907654 0.81217873096466 -0.22326084971428
vn 0.53899931907654 0.81217873096466 -0.22326084971428
vn 0 0.92129844427109 0.38885629177094
vn 0 0.92129844427109 0.38885629177094
vn 0 0.92129844427109 0.38885629177094
vn 0 0 0
vn 0 1 0
vn 0 1 0
vn 0 1 0
vn 0 0 0
vn -0.53211116790771 0.81748247146606 -0.22040903568268
vn -0.53211116790771 0.81748247146606 -0.22040903568268
vn -0.53211116790771 0.81748247146606 -0.22040903568268
vn -0.53211116790771 0.81748247146606 -0.22040903568268
vn 0 1 0
vn 0 1 0
vn 0 1 0
vn 0 1 0
vn 0.2749696969986 0.92129439115524 0.2749696969986
vn 0.2749696969986 0.92129439115524 0.2749696969986
vn 0.2749696969986 0.92129439115524 0.2749696969986
vn 0 0 0
vn 0.22044323384762 0.81748247146606 -0.53209698200226
vn 0.22044323384762 0.81748247146606 -0.53209698200226
vn 0.22044323384762 0.81748247146606 -0.53209698200226
vn 0.22044323384762 0.81748247146606 -0.53209698200226
vn -0.6602977514267 0.739202439785 -0.13261435925961
vn -0.6602977514267 0.739202439785 -0.13261435925961
vn -0.6602977514267 0.739202439785 -0.13261435925961
vn -0.6602977514267 0.739202439785 -0.13261435925961
vn 0.56066381931305 0.73921293020248 -0.3731224834919
vn 0.56066381931305 0.73921293020248 -0.3731224834919
vn 0.56066381931305 0.73921293020248 -0.3731224834919
vn 0.56066381931305 0.73921293020248 -0.3731224834919
vn -0.37311723828316 0.73922115564346 -0.5606564283371
vn -0.37311723828316 0.73922115564346 -0.5606564283371
vn -0.37311723828316 0.73922115564346 -0.5606564283371
vn -0.37311723828316 0.73922115564346 -0.5606564283371
vn 0.38888862729073 0.92128479480743 0
vn 0.38888862729073 0.92128479480743 0
vn 0.38888862729073 0.92128479480743 0
vn 0 0 0
vn 0.65084189176559 -0.74809408187866 -0.12946075201035
vn 0.65084189176559 -0.74809408187866 -0.12946075201035
vn 0.65084189176559 -0.74809408187866 -0.12946075201035
vn 0 0 0
vn -0.27500203251839 0.92127507925034 -0.27500203251839
vn -0.27500203251839 0.92127507925034 -0.27500203251839
vn -0.27500203251839 0.92127507925034 -0.27500203251839
vn 0 0 0
vn 0.65084189176559 -0.74809408187866 0.12946075201035
vn 0.65084189176559 -0.74809408187866 0.12946075201035
vn 0.65084189176559 -0.74809408187866 0.12946075201035
vn 0 0 0
vn 0.89050370454788 0.41907924413681 -0.17713214457035
vn 0.89050370454788 0.41907924413681 -0.17713214457035
vn 0.89050370454788 0.41907924413681 -0.17713214457035
vn 0.89050370454788 0.41907924413681 -0.17713214457035
vn 0.5517572760582 -0.74809408187866 -0.36867225170136
vn 0.5517572760582 -0.74809408187866 -0.36867225170136
vn 0.5517572760582 -0.74809408187866 -0.36867225170136
vn 0 0 0
vn 0.56069380044937 0.73918032646179 0.37314197421074
vn 0.56069380044937 0.73918032646179 0.37314197421074
vn 0.56069380044937 0.73918032646179 0.37314197421074
vn 0.56069380044937 0.73918032646179 0.37314197421074
vn 0.5517572760582 -0.74809414148331 0.36867213249207
vn 0.5517572760582 -0.74809414148331 0.36867213249207
vn 0.5517572760582 -0.74809414148331 0.36867213249207
vn 0 0 0
vn 0.12946057319641 -0.74809414148331 0.65084189176559
vn 0.12946057319641 -0.74809414148331 0.65084189176559
vn 0.12946057319641 -0.74809414148331 0.65084189176559
vn 0 0 0
vn 0.36867213249207 -0.74809414148331 -0.5517572760582
vn 0.36867213249207 -0.74809414148331 -0.5517572760582
vn 0.36867213249207 -0.74809414148331 -0.5517572760582
vn 0 0 0
vn 0.36867222189903 -0.74809402227402 0.5517572760582
vn 0.36867222189903 -0.74809402227402 0.5517572760582
vn 0.36867222189903 -0.74809402227402 0.5517572760582
vn 0 0 0
vn -0.9807853102684 0 -0.19509024918079
vn -0.9807853102684 0 -0.19509007036686
vn -0.9807853102684 0 -0.19509007036686
vn -0.9807853102684 0 -0.19509024918079
vn 0.55557036399841 0 0.83146953582764
vn 0.55557036399841 0 0.83146953582764
vn 0.55557036399841 0 0.83146953582764
vn 0.55557036399841 0 0.83146953582764
vn 0.12946075201035 -0.74809408187866 -0.65084189176559
vn 0.12946075201035 -0.74809408187866 -0.65084189176559
vn 0.12946075201035 -0.74809408187866 -0.65084189176559
vn 0 0 0
vn -0.83146953582764 0 0.55557036399841
vn -0.83146953582764 0 0.55557036399841
vn -0.83146953582764 0 0.55557036399841
vn -0.83146953582764 0 0.55557036399841
vn -0.55557036399841 0 0.83146953582764
vn -0.55557036399841 0 0.83146953582764
vn -0.55557036399841 0 0.83146953582764
vn -0.55557036399841 0 0.83146953582764
vn 0.9807853102684 0 -0.19509007036686
vn 0.9807853102684 0 -0.19509007036686
vn 0.9807853102684 0 -0.19509024918079
vn 0.9807853102684 0 -0.19509024918079
vn -0.12946075201035 -0.74809408187866 -0.65084189176559
vn -0.12946075201035 -0.74809408187866 -0.65084189176559
vn -0.12946075201035 -0.74809408187866 -0.65084189176559
vn 0 0 0
vn 0.83146953582764 0 -0.55557036399841
vn 0.83146953582764 0 -0.55557036399841
vn 0.83146953582764 0 -0.55557036399841
vn 0.83146953582764 0 -0.55557036399841
vn -0.12946075201035 -0.74809408187866 0.65084189176559
vn -0.12946075201035 -0.74809408187866 0.65084189176559
vn -0.12946075201035 -0.74809408187866 0.65084189176559
vn 0 0 0
vn 0.55557024478912 0 -0.83146959543228
vn 0.55557024478912 0 -0.83146959543228
vn 0.55557024478912 0 -0.83146959543228
vn 0.55557024478912 0 -0.83146959543228
vn -0.36867225170136 -0.74809408187866 -0.5517572760582
vn -0.36867225170136 -0.74809408187866 -0.5517572760582
vn -0.36867225170136 -0.74809408187866 -0.5517572760582
vn 0 0 0
vn 0.19509042799473 0 -0.98078525066376
vn 0.19509042799473 0 -0.98078525066376
vn 0.19509024918079 0 -0.9807853102684
vn 0.19509024918079 0 -0.9807853102684
vn -0.36867222189903 -0.74809402227402 0.5517572760582
vn -0.36867222189903 -0.74809402227402 0.5517572760582
vn -0.36867222189903 -0.74809402227402 0.5517572760582
vn 0 0 0
vn -0.19509024918079 0 -0.9807853102684
vn -0.19509042799473 0 -0.98078525066376
vn -0.19509042799473 0 -0.98078525066376
vn -0.19509024918079 0 -0.9807853102684
vn -0.5517572760582 -0.74809414148331 -0.36867213249207
vn -0.5517572760582 -0.74809414148331 -0.36867213249207
vn -0.5517572760582 -0.74809414148331 -0.36867213249207
vn 0 0 0
vn -0.55557024478912 0 -0.83146959543228
vn -0.55557024478912 0 -0.83146959543228
vn -0.55557024478912 0 -0.83146959543228
vn -0.55557024478912 0 -0.83146959543228
vn -0.5517572760582 -0.74809402227402 0.36867222189903
vn -0.5517572760582 -0.74809402227402 0.36867222189903
vn -0.5517572760582 -0.74809402227402 0.36867222189903
vn 0 0 0
vn -0.83146953582764 0 -0.55557036399841
vn -0.83146953582764 0 -0.55557036399841
vn -0.83146953582764 0 -0.55557036399841
vn -0.83146953582764 0 -0.55557036399841
vn -0.65084189176559 -0.74809408187866 -0.12946075201035
vn -0.65084189176559 -0.74809408187866 -0.12946075201035
vn -0.65084189176559 -0.74809408187866 -0.12946075201035
vn 0 0 0
vn -0.98078525066376 0 -0.19509042799473
vn -0.98078525066376 0 -0.19509042799473
vn -0.9807853102684 0 -0.19509024918079
vn -0.9807853102684 0 -0.19509024918079
vn -0.65084189176559 -0.74809408187866 0.12946075201035
vn -0.65084189176559 -0.74809408187866 0.12946075201035
vn -0.65084189176559 -0.74809408187866 0.12946075201035
vn 0 0 0
vn -0.9807853102684 0 0.19509007036686
vn -0.9807853102684 0 0.19509007036686
vn -0.9807853102684 0 0.19509024918079
vn -0.9807853102684 0 0.19509024918079
vn 0.9807853102684 0 0.19509024918079
vn 0.9807853102684 0 0.19509007036686
vn 0.9807853102684 0 0.19509007036686
vn 0.9807853102684 0 0.19509024918079
vn -0.83146959543228 0 0.55557024478912
vn -0.83146959543228 0 0.55557024478912
vn -0.83146959543228 0 0.55557024478912
vn -0.83146959543228 0 0.55557024478912
vn -0.19509024918079 0 0.9807853102684
vn -0.19509007036686 0 0.9807853102684
vn -0.19509007036686 0 0.9807853102684
vn -0.19509024918079 0 0.9807853102684
vn -0.55557024478912 0 0.83146959543228
vn -0.55557024478912 0 0.83146959543228
vn -0.55557024478912 0 0.83146959543228
vn -0.55557024478912 0 0.83146959543228
vn 0 1 0
vn 0 1 0
vn 0 1 0
vn 0 1 0
vn -0.19509042799473 0 0.98078525066376
vn -0.19509042799473 0 0.98078525066376
vn -0.19509024918079 0 0.9807853102684
vn -0.19509024918079 0 0.9807853102684
vn 0 0.9215167760849 -0.38833853602409
vn 0 0.9215167760849 -0.38833853602409
vn 0 0.9215167760849 -0.38833853602409
vn 0 0 0
vn 0.19509007036686 0 0.9807853102684
vn 0.19509007036686 0 0.9807853102684
vn 0.19509024918079 0 0.9807853102684
vn 0.19509024918079 0 0.9807853102684
vn -0.83146959543228 0 -0.55557024478912
vn -0.83146959543228 0 -0.55557024478912
vn -0.83146959543228 0 -0.55557024478912
vn -0.83146959543228 0 -0.55557024478912
vn 0.55557024478912 0 0.83146959543228
vn 0.55557024478912 0 0.83146959543228
vn 0.55557024478912 0 0.83146959543228
vn 0.55557024478912 0 0.83146959543228
vn 0.66031044721603 0.73919075727463 0.13261651992798
vn 0.66031044721603 0.73919075727463 0.13261651992798
vn 0.66031044721603 0.73919075727463 0.13261651992798
vn 0.66031044721603 0.73919075727463 0.13261651992798
vn 0.83146953582764 0 0.55557036399841
vn 0.83146953582764 0 0.55557036399841
vn 0.83146953582764 0 0.55557036399841
vn 0.83146953582764 0 0.55557036399841
vn 0.3731472492218 0.73917204141617 0.56070119142532
vn 0.3731472492218 0.73917204141617 0.56070119142532
vn 0.3731472492218 0.73917204141617 0.56070119142532
vn 0.3731472492218 0.73917204141617 0.56070119142532
vn 0.98078525066376 0 0.19509042799473
vn 0.98078525066376 0 0.19509042799473
vn 0.9807853102684 0 0.19509024918079
vn 0.9807853102684 0 0.19509024918079
vn -0.9807853102684 0 0.19509024918079
vn -0.98078525066376 0 0.19509042799473
vn -0.98078525066376 0 0.19509042799473
vn -0.9807853102684 0 0.19509024918079
vn 0.13262175023556 0.73916774988174 0.66033518314362
vn 0.13262175023556 0.73916774988174 0.66033518314362
vn 0.13262175023556 0.73916774988174 0.66033518314362
vn 0.13262175023556 0.73916774988174 0.66033518314362
vn 0.19509024918079 0 0.9807853102684
vn 0.19509042799473 0 0.98078525066376
vn 0.19509042799473 0 0.98078525066376
vn 0.19509024918079 0 0.9807853102684
vn 0.27500203251839 0.92127507925034 -0.27500203251839
vn 0.27500203251839 0.92127507925034 -0.27500203251839
vn 0.27500203251839 0.92127507925034 -0.27500203251839
vn 0 0 0
vn 0.83146959543228 0 0.55557024478912
vn 0.83146959543228 0 0.55557024478912
vn 0.83146959543228 0 0.55557024478912
vn 0.83146959543228 0 0.55557024478912
vn -0.50443530082703 0.41905808448792 0.75494062900543
vn -0.50443530082703 0.41905808448792 0.75494062900543
vn -0.50443530082703 0.41905808448792 0.75494062900543
vn -0.50443530082703 0.41905808448792 0.75494062900543
vn 0.9807853102684 0 -0.19509024918079
vn 0.98078525066376 0 -0.19509042799473
vn 0.98078525066376 0 -0.19509042799473
vn 0.9807853102684 0 -0.19509024918079
vn -0.89050716161728 0.41907152533531 0.17713283002377
vn -0.89050716161728 0.41907152533531 0.17713283002377
vn -0.89050716161728 0.41907152533531 0.17713283002377
vn -0.89050716161728 0.41907152533531 0.17713283002377
vn -0.56066381931305 0.73921293020248 -0.3731224834919
vn -0.56066381931305 0.73921293020248 -0.3731224834919
vn -0.56066381931305 0.73921293020248 -0.3731224834919
vn -0.56066381931305 0.73921293020248 -0.3731224834919
vn -0.55866450071335 -0.74055445194244 0.37346091866493
vn -0.55866450071335 -0.74055445194244 0.37346091866493
vn -0.55866450071335 -0.74055445194244 0.37346091866493
vn -0.55866450071335 -0.74055445194244 0.37346091866493
vn -0.55866450071335 -0.74055445194244 -0.37346091866493
vn -0.55866450071335 -0.74055445194244 -0.37346091866493
vn -0.55866450071335 -0.74055445194244 -0.37346091866493
vn -0.55866450071335 -0.74055445194244 -0.37346091866493
vn -0.37346091866493 -0.74055445194244 -0.55866450071335
vn -0.37346091866493 -0.74055445194244 -0.55866450071335
vn -0.37346091866493 -0.74055445194244 -0.55866450071335
vn -0.37346091866493 -0.74055445194244 -0.55866450071335
vn -0.17792782187462 -0.41012752056122 -0.8945038318634
vn -0.17792782187462 -0.41012752056122 -0.8945038318634
vn -0.17792782187462 -0.41012752056122 -0.8945038318634
vn -0.17792782187462 -0.41012752056122 -0.8945038318634
vn 0.13095873594284 -0.74055451154709 -0.65911215543747
vn 0.13095873594284 -0.74055451154709 -0.65911215543747
vn 0.13095873594284 -0.74055451154709 -0.65911215543747
vn 0.13095873594284 -0.74055451154709 -0.65911215543747
vn 0.50669592618942 -0.41012686491013 -0.75832390785217
vn 0.50669592618942 -0.41012686491013 -0.75832390785217
vn 0.50669592618942 -0.41012686491013 -0.75832390785217
vn 0.50669592618942 -0.41012686491013 -0.75832390785217
vn 0.55866450071335 -0.74055445194244 -0.37346091866493
vn 0.55866450071335 -0.74055445194244 -0.37346091866493
vn 0.55866450071335 -0.74055445194244 -0.37346091866493
vn 0.55866450071335 -0.74055445194244 -0.37346091866493
vn 0.8945038318634 -0.41012752056122 -0.17792782187462
vn 0.8945038318634 -0.41012752056122 -0.17792782187462
vn 0.8945038318634 -0.41012752056122 -0.17792782187462
vn 0.8945038318634 -0.41012752056122 -0.17792782187462
vn 0.65911215543747 -0.74055451154709 0.13095873594284
vn 0.65911215543747 -0.74055451154709 0.13095873594284
vn 0.65911215543747 -0.74055451154709 0.13095873594284
vn 0.65911215543747 -0.74055451154709 0.13095873594284
vn 0.55866450071335 -0.74055445194244 0.37346091866493
vn 0.55866450071335 -0.74055445194244 0.37346091866493
vn 0.55866450071335 -0.74055445194244 0.37346091866493
vn 0.55866450071335 -0.74055445194244 0.37346091866493
vn 0.37346091866493 -0.74055445194244 0.55866450071335
vn 0.37346091866493 -0.74055445194244 0.55866450071335
vn 0.37346091866493 -0.74055445194244 0.55866450071335
vn 0.37346091866493 -0.74055445194244 0.55866450071335
vn 0.13095870614052 -0.74055451154709 0.65911215543747
vn 0.13095870614052 -0.74055451154709 0.65911215543747
vn 0.13095870614052 -0.74055451154709 0.65911215543747
vn 0.13095870614052 -0.74055451154709 0.65911215543747
vn -0.13095873594284 -0.74055451154709 0.65911215543747
vn -0.13095873594284 -0.74055451154709 0.65911215543747
vn -0.13095873594284 -0.74055451154709 0.65911215543747
vn -0.13095873594284 -0.74055451154709 0.65911215543747
vn -0.50669592618942 -0.41012686491013 0.75832390785217
vn -0.50669592618942 -0.41012686491013 0.75832390785217
vn -0.50669592618942 -0.41012686491013 0.75832390785217
vn -0.50669592618942 -0.41012686491013 0.75832390785217
vn -0.55557036399841 0 -0.83146953582764
vn -0.55557036399841 0 -0.83146953582764
vn -0.55557036399841 0 -0.83146953582764
vn -0.55557036399841 0 -0.83146953582764
vn -0.8945038318634 -0.41012752056122 0.17792782187462
vn -0.8945038318634 -0.41012752056122 0.17792782187462
vn -0.8945038318634 -0.41012752056122 0.17792782187462
vn -0.8945038318634 -0.41012752056122 0.17792782187462
vn -0.17712341248989 0.41917616128922 -0.89045977592468
vn -0.17712341248989 0.41917616128922 -0.89045977592468
vn -0.17712341248989 0.41917616128922 -0.89045977592468
vn -0.17712341248989 0.41917616128922 -0.89045977592468
vn 0.13257080316544 0.7393878698349 -0.66009885072708
vn 0.13257080316544 0.7393878698349 -0.66009885072708
vn 0.13257080316544 0.7393878698349 -0.66009885072708
vn 0.13257080316544 0.7393878698349 -0.66009885072708
vn -0.65911215543747 -0.74055451154709 -0.13095873594284
vn -0.65911215543747 -0.74055451154709 -0.13095873594284
vn -0.65911215543747 -0.74055451154709 -0.13095873594284
vn -0.65911215543747 -0.74055451154709 -0.13095873594284
vn 0.83146959543228 0 -0.55557024478912
vn 0.83146959543228 0 -0.55557024478912
vn 0.83146959543228 0 -0.55557024478912
vn 0.83146959543228 0 -0.55557024478912
vn -0.53211206197739 0.81748247146606 0.22040669620037
vn -0.53211206197739 0.81748247146606 0.22040669620037
vn -0.53211206197739 0.81748247146606 0.22040669620037
vn -0.53211206197739 0.81748247146606 0.22040669620037
vn -0.56069380044937 0.73918032646179 0.37314197421074
vn -0.56069380044937 0.73918032646179 0.37314197421074
vn -0.56069380044937 0.73918032646179 0.37314197421074
vn -0.56069380044937 0.73918032646179 0.37314197421074
vn 0.50442689657211 0.41909092664719 -0.75492805242538
vn 0.50442689657211 0.41909092664719 -0.75492805242538
vn 0.50442689657211 0.41909092664719 -0.75492805242538
vn 0.50442689657211 0.41909092664719 -0.75492805242538
vn 0.55557036399841 0 -0.83146953582764
vn 0.55557036399841 0 -0.83146953582764
vn 0.55557036399841 0 -0.83146953582764
vn 0.55557036399841 0 -0.83146953582764
vn 0 1 0
vn 0 1 0
vn 0 1 0
vn 0 0 0
vn 0.22325046360493 0.8121982216835 0.53897434473038
vn 0.22325046360493 0.8121982216835 0.53897434473038
vn 0.22325046360493 0.8121982216835 0.53897434473038
vn 0.22325046360493 0.8121982216835 0.53897434473038
vn -0.13262176513672 0.73916774988174 0.66033518314362
vn -0.13262176513672 0.73916774988174 0.66033518314362
vn -0.13262176513672 0.73916774988174 0.66033518314362
vn -0.13262176513672 0.73916774988174 0.66033518314362
vn 0.19509024918079 0 -0.9807853102684
vn 0.19509007036686 0 -0.9807853102684
vn 0.19509007036686 0 -0.9807853102684
vn 0.19509024918079 0 -0.9807853102684
# 400 normals

vt 0.9619397521019 0.30865836143494 0
vt 0.9619397521019 0.30865836143494 0
vt 1 0.5 0
vt 0.9619397521019 0.30865836143494 0
vt 0.9619397521019 0.69134175777435 0
vt 0 0.5 0
vt 0.03806023299694 0.69134175777435 0
vt 0.03806023299694 0.69134175777435 0
vt 0.40432912111282 0.98096990585327 0
vt 0.5 1 0
vt 0.5 1 0
vt 0.40432912111282 0.98096990585327 0
vt 0.69134169816971 0.9619397521019 0
vt 0.46986415982246 0.46986413002014 0
vt 0.03806023299694 0.30865836143494 0
vt 0.03806023299694 0.30865836143494 0
vt 0.1811016201973 0.88199400901794 0
vt 0.30865827202797 0.9619397521019 0
vt 0.91573482751846 0.77778512239456 0
vt 0.30865827202797 0.9619397521019 0
vt 0.69134169816971 0.9619397521019 0
vt 0.48369055986404 0.46062564849854 0
vt 0.30865827202797 0.03806030750275 0
vt 0.14644661545753 0.14644658565521 0
vt 0.88199406862259 0.8188983798027 0
vt 0.9619397521019 0.69134175777435 0
vt 1 0.5 0
vt 0.9619397521019 0.69134175777435 0
vt 0.30865827202797 0.9619397521019 0
vt 0.5 0.4573814868927 0
vt 0.30865827202797 0.03806030750275 0
vt 0.30865827202797 0.03806030750275 0
vt 0.91573482751846 0.22221493721008 0
vt 0.59754514694214 0.00960743427277 0
vt 0.22221487760544 0.08426523208618 0
vt 0.22221487760544 0.08426523208618 0
vt 0.03806023299694 0.69134175777435 0
vt 0.14644661545753 0.85355341434479 0
vt 0.08426519483328 0.77778512239456 0
vt 0.0043942281045 0.54461532831192 0
vt 0.99039262533188 0.59754514694214 0
vt 0.91573482751846 0.22221493721008 0
vt 0.22221487760544 0.08426523208618 0
vt 0.08426519483328 0.77778512239456 0
vt 0.03806023299694 0.69134175777435 0
vt 0.53013586997986 0.46986413002014 0
vt 0.69134169816971 0.03806030750275 0
vt 0.69134169816971 0.03806030750275 0
vt 0.77778512239456 0.91573482751846 0
vt 0.73087930679321 0.94080650806427 0
vt 0.69134169816971 0.9619397521019 0
vt 0.85355341434479 0.85355341434479 0
vt 0.0043942281045 0.54461532831192 0
vt 0 0.5 0
vt 0.01903011649847 0.59567087888718 0
vt 0.03806023299694 0.69134175777435 0
vt 0.88199406862259 0.8188983798027 0
vt 0.85355341434479 0.85355341434479 0
vt 0.90774655342102 0.77244758605957 0
vt 0.9619397521019 0.69134175777435 0
vt 0.1811016201973 0.88199400901794 0
vt 0.14644661545753 0.85355341434479 0
vt 0.22755244374275 0.90774655342102 0
vt 0.30865827202797 0.9619397521019 0
vt 0.9619397521019 0.30865836143494 0
vt 0.99039262533188 0.59754514694214 0
vt 1 0.5 0
vt 1 0.5 0
vt 0.00960735976696 0.40245485305786 0
vt 1 0.5 0
vt 0 0 0
vt 0 0 0
vt 0.08426519483328 0.77778512239456 0
vt 0.1811016201973 0.88199400901794 0
vt 0.30865827202797 0.9619397521019 0
vt 0.30865827202797 0.9619397521019 0
vt 1 0.5 0
vt 0.14644661545753 0.14644658565521 0
vt 0 1 0
vt 0 1 0
vt 0.9619397521019 0.69134175777435 0
vt 0.98096990585327 0.59567087888718 0
vt 1 0.5 0
vt 1 0.5 0
vt 1 0.5 0
vt 0.75 0.375 0
vt 0 1 0
vt 0 1 0
vt 0.90774655342102 0.22755253314972 0
vt 0.85355341434479 0.14644658565521 0
vt 0.85355341434479 0.14644658565521 0
vt 0.9619397521019 0.30865836143494 0
vt 0.75 0.625 0
vt 1 0.5 0
vt 0 0 0
vt 0 0 0
vt 0 0 0
vt 0.30865827202797 0.9619397521019 0
vt 1 0.5 0
vt 1 0.5 0
vt 0.59754514694214 0.00960743427277 0
vt 1 0.5 0
vt 0 0 0
vt 0 0 0
vt 0 1 0
vt 1 0.5 0
vt 0.75 0.375 0
vt 0.75 0.375 0
vt 0.01903011649847 0.59567087888718 0
vt 0 0.5 0
vt 0 0.5 0
vt 0.01903011649847 0.59567087888718 0
vt 0.77244758605957 0.09225344657898 0
vt 0.85355341434479 0.14644658565521 0
vt 0.85355341434479 0.14644658565521 0
vt 0.77244758605957 0.09225344657898 0
vt 1 0.5 0
vt 0.75 0.375 0
vt 0 1 0
vt 0 1 0
vt 0.09225342422724 0.22755253314972 0
vt 0.14644661545753 0.14644658565521 0
vt 0.14644661545753 0.14644658565521 0
vt 0.09225342422724 0.22755253314972 0
vt 0.22755244374275 0.09225344657898 0
vt 0.14644661545753 0.14644658565521 0
vt 0.14644661545753 0.14644658565521 0
vt 0.22755244374275 0.09225344657898 0
vt 1 0.5 0
vt 1 0.5 0
vt 0.98096990585327 0.59567087888718 0
vt 0.98096990585327 0.59567087888718 0
vt 0.99039262533188 0.59754514694214 0
vt 1 0.5 0
vt 0 0 0
vt 0 0 0
vt 0.90774655342102 0.77244758605957 0
vt 0.85355341434479 0.85355341434479 0
vt 0.85355341434479 0.85355341434479 0
vt 0.90774655342102 0.77244758605957 0
vt 1 0.5 0
vt 0.85355341434479 0.85355341434479 0
vt 0 1 0
vt 0 1 0
vt 0.77244758605957 0.90774655342102 0
vt 0.69134169816971 0.9619397521019 0
vt 0.69134169816971 0.9619397521019 0
vt 0.77244758605957 0.90774655342102 0
vt 1 0.5 0
vt 0.75 0.375 0
vt 0 1 0
vt 0 1 0
vt 0.69134169816971 0.9619397521019 0
vt 0.69134169816971 0.9619397521019 0
vt 0.59567087888718 0.98096990585327 0
vt 0.59567087888718 0.98096990585327 0
vt 0 0 0
vt 0.75 0.625 0
vt 1 0.5 0
vt 1 0.5 0
vt 0.40432912111282 0.98096990585327 0
vt 0.30865827202797 0.9619397521019 0
vt 0.30865827202797 0.9619397521019 0
vt 0.40432912111282 0.98096990585327 0
vt 0.40245485305786 0.99039262533188 0
vt 1 0.5 0
vt 0 0 0
vt 0 0 0
vt 0.30865827202797 0.9619397521019 0
vt 0.30865827202797 0.9619397521019 0
vt 0.22755244374275 0.90774655342102 0
vt 0.22755244374275 0.90774655342102 0
vt 0 1 0
vt 1 0.5 0
vt 0.14644661545753 0.85355341434479 0
vt 0.14644661545753 0.85355341434479 0
vt 0.14644661545753 0.85355341434479 0
vt 0.14644661545753 0.85355341434479 0
vt 0.09225342422724 0.77244758605957 0
vt 0.09225342422724 0.77244758605957 0
vt 1 0.5 0
vt 0.75 0.375 0
vt 0 1 0
vt 0 1 0
vt 0.03806023299694 0.69134175777435 0
vt 0.03806023299694 0.69134175777435 0
vt 0.01903011649847 0.59567087888718 0
vt 0.01903011649847 0.59567087888718 0
vt 0.75 0.625 0
vt 1 0.5 0
vt 0 0 0
vt 0 0 0
vt 0 0.5 0
vt 0 0.5 0
vt 0.01903011649847 0.40432918071747 0
vt 0.01903011649847 0.40432918071747 0
vt 0.98096990585327 0.40432918071747 0
vt 1 0.5 0
vt 1 0.5 0
vt 0.98096990585327 0.40432918071747 0
vt 0.03806023299694 0.30865836143494 0
vt 0.03806023299694 0.30865836143494 0
vt 0.09225342422724 0.22755253314972 0
vt 0.09225342422724 0.22755253314972 0
vt 0.40432912111282 0.01903021335602 0
vt 0.5 0 0
vt 0.5 0 0
vt 0.40432912111282 0.01903021335602 0
vt 0.22755244374275 0.09225344657898 0
vt 0.30865827202797 0.03806030750275 0
vt 0.30865827202797 0.03806030750275 0
vt 0.22755244374275 0.09225344657898 0
vt 0.08426519483328 0.77778512239456 0
vt 0.40245485305786 0.99039262533188 0
vt 0.77778512239456 0.91573482751846 0
vt 0.99039262533188 0.59754514694214 0
vt 0.30865827202797 0.03806030750275 0
vt 0.30865827202797 0.03806030750275 0
vt 0.40432912111282 0.01903021335602 0
vt 0.40432912111282 0.01903021335602 0
vt 0.40245485305786 0.99039262533188 0
vt 0.5 1 0
vt 0.69134169816971 0.9619397521019 0
vt 0.69134169816971 0.9619397521019 0
vt 0.5 0 0
vt 0.5 0 0
vt 0.59567087888718 0.01903021335602 0
vt 0.59567087888718 0.01903021335602 0
vt 0.09225342422724 0.77244758605957 0
vt 0.03806023299694 0.69134175777435 0
vt 0.03806023299694 0.69134175777435 0
vt 0.09225342422724 0.77244758605957 0
vt 0.69134169816971 0.03806030750275 0
vt 0.69134169816971 0.03806030750275 0
vt 0.77244758605957 0.09225344657898 0
vt 0.77244758605957 0.09225344657898 0
vt 1 0.5 0
vt 1 0.5 0
vt 0.98096990585327 0.40432918071747 0
vt 0.9619397521019 0.30865836143494 0
vt 0.85355341434479 0.14644658565521 0
vt 0.85355341434479 0.14644658565521 0
vt 0.90774655342102 0.22755253314972 0
vt 0.90774655342102 0.22755253314972 0
vt 0.53013586997986 0.46986413002014 0
vt 0.85355341434479 0.14644658565521 0
vt 0.77244758605957 0.09225344657898 0
vt 0.69134169816971 0.03806030750275 0
vt 0.9619397521019 0.30865836143494 0
vt 0.9619397521019 0.30865836143494 0
vt 0.98096990585327 0.40432918071747 0
vt 0.98096990585327 0.40432918071747 0
vt 0.01903011649847 0.40432918071747 0
vt 0.03806023299694 0.30865836143494 0
vt 0.03806023299694 0.30865836143494 0
vt 0.01903011649847 0.40432918071747 0
vt 0.59567087888718 0.01903021335602 0
vt 0.5 0 0
vt 0.5 0 0
vt 0.69134169816971 0.03806030750275 0
vt 0.59567087888718 0.01903021335602 0
vt 0.69134169816971 0.03806030750275 0
vt 0.69134169816971 0.03806030750275 0
vt 0.59567087888718 0.01903021335602 0
vt 0.77778512239456 0.91573482751846 0
vt 0.88199406862259 0.8188983798027 0
vt 0.9619397521019 0.69134175777435 0
vt 0.9619397521019 0.69134175777435 0
vt 0.90774655342102 0.22755253314972 0
vt 0.9619397521019 0.30865836143494 0
vt 0.9619397521019 0.30865836143494 0
vt 0.90774655342102 0.22755253314972 0
vt 0.30865827202797 0.03806030750275 0
vt 0.22755244374275 0.09225344657898 0
vt 0.14644661545753 0.14644658565521 0
vt 0.14644661545753 0.14644658565521 0
vt 0.98096990585327 0.59567087888718 0
vt 0.9619397521019 0.69134175777435 0
vt 0.9619397521019 0.69134175777435 0
vt 0.98096990585327 0.59567087888718 0
vt 0.03806023299694 0.30865836143494 0
vt 0.01903011649847 0.40432918071747 0
vt 0 0.5 0
vt 0 0.5 0
vt 0.09225342422724 0.77244758605957 0
vt 0.14644661545753 0.85355341434479 0
vt 0.14644661545753 0.85355341434479 0
vt 0.03806023299694 0.69134175777435 0
vt 0.75 0.375 0
vt 0 0 0
vt 0 0.5 0
vt 0 1 0
vt 0 0.5 0
vt 0 1 0
vt 0.9619397521019 0.30865836143494 0
vt 0 0 0
vt 0.75 0.375 0
vt 0 0 0
vt 0 0.5 0
vt 0 1 0
vt 0 0 0
vt 0 0.5 0
vt 0 1 0
vt 0.69134169816971 0.03806030750275 0
vt 0.75 0.375 0
vt 0 0 0
vt 0 0.5 0
vt 0 1 0
vt 0 0 0
vt 0 0.5 0
vt 0 1 0
vt 0.30865827202797 0.03806030750275 0
vt 0.75 0.375 0
vt 0 0 0
vt 0 0.5 0
vt 0 1 0
vt 0 0 0
vt 0 0.5 0
vt 0 1 0
vt 0.03806023299694 0.30865836143494 0
vt 0.75 0.375 0
vt 0 0 0
vt 0 0.5 0
vt 0 1 0
vt 0 0.5 0
vt 0 1 0
vt 0.03806023299694 0.69134175777435 0
vt 0 0 0
vt 0.75 0.375 0
vt 0 0 0
vt 0 0.5 0
vt 0 1 0
vt 0 0.5 0
vt 0 1 0
vt 0.30865827202797 0.9619397521019 0
vt 0 0 0
vt 0.75 0.375 0
vt 0 0 0
vt 0 0.5 0
vt 0 1 0
vt 0 0 0
vt 0 0.5 0
vt 0 1 0
vt 0.69134169816971 0.9619397521019 0
vt 0.22755244374275 0.90774655342102 0
vt 0.14644661545753 0.85355341434479 0
vt 0.14644661545753 0.85355341434479 0
vt 0.22755244374275 0.90774655342102 0
vt 0 0 0
vt 0 0.5 0
vt 0 1 0
vt 0.9619397521019 0.69134175777435 0
vt 0.30865827202797 0.9619397521019 0
vt 0.40432912111282 0.98096990585327 0
vt 0.5 1 0
vt 0.5 1 0
vt 0.54475688934326 0.99559181928635 0
vt 0.5 1 0
vt 0.59567087888718 0.98096990585327 0
vt 0.69134169816971 0.9619397521019 0
vt 0.75 0.375 0
vt 0 0 0
vt 0 0.5 0
vt 0 1 0
vt 0.90774655342102 0.77244758605957 0
vt 0.9619397521019 0.69134175777435 0
vt 0.9619397521019 0.69134175777435 0
vt 0.90774655342102 0.77244758605957 0
vt 0.03806023299694 0.30865836143494 0
vt 0 0.5 0
vt 0.9619397521019 0.69134175777435 0
vt 0.46986415982246 0.46986413002014 0
vt 0.46986415982246 0.46986413002014 0
vt 0.14644661545753 0.14644658565521 0
vt 0.09225342422724 0.22755253314972 0
vt 0.03806023299694 0.30865836143494 0
vt 0.69134169816971 0.9619397521019 0
vt 0.77244758605957 0.90774655342102 0
vt 0.85355341434479 0.85355341434479 0
vt 0.85355341434479 0.85355341434479 0
vt 0.77244758605957 0.90774655342102 0
vt 0.85355341434479 0.85355341434479 0
vt 0.85355341434479 0.85355341434479 0
vt 0.77244758605957 0.90774655342102 0
vt 0.22221487760544 0.08426523208618 0
vt 0.00960735976696 0.40245485305786 0
vt 0.08426519483328 0.77778512239456 0
vt 0.08426519483328 0.77778512239456 0
vt 0.51630938053131 0.46062564849854 0
vt 0.69134169816971 0.03806030750275 0
vt 0.5 0 0
vt 0.69134169816971 0.03806030750275 0
vt 0.5 0.4573814868927 0
vt 0.5 0 0
vt 0.40432912111282 0.01903021335602 0
vt 0.30865827202797 0.03806030750275 0
vt 0.59567087888718 0.98096990585327 0
vt 0.5 1 0
vt 0.5 1 0
vt 0.59567087888718 0.98096990585327 0
# 400 texture coordinates

o Disc.1
usemtl Mat
f 64/1/1 25/3/1 31/1/1 5/1/1
f 15/7/5 29/6/5 19/5/5
f 78/9/9 42/10/10 10/10/10 77/9/9
f 19/15/13 21/14/13 23/13/13
f 11/18/17 13/19/17 44/18/17 9/17/17
f 21/24/21 56/23/21 1/22/21 23/13/21
f 3/5/25 25/3/25 36/5/25 17/25/25
f 23/23/29 1/30/29 27/18/29
f 3/41/41 7/215/215 11/214/214 15/213/213 19/386/386 23/385/385 27/34/34 31/33/33
f 29/40/37 15/39/37 9/38/37 48/7/37
f 27/47/45 5/46/45 31/7/45
f 17/52/49 40/13/49 13/50/49 7/49/49
f 48/7/53 86/55/53 50/6/53 29/40/53
f 36/5/57 69/59/57 38/52/57 17/25/57
f 44/18/61 80/63/61 46/38/61 9/17/61
f 25/3/65 3/41/65 31/1/65
f 2/71/69 33/3/69 37/69/69
f 11/18/73 9/17/73 15/39/73
f 2/79/77 65/24/77 33/3/77
f 25/3/81 34/3/81 79/82/81 36/5/81
f 6/79/85 37/86/85 33/3/85
f 64/1/89 5/90/89 62/90/89 75/89/89
f 30/71/93 33/3/93 65/93/93
f 33/3/97 61/18/97 26/71/97
f 6/71/101 33/3/101 41/34/101
f 61/86/105 33/3/105 30/79/105
f 87/55/109 18/6/110 50/6/110 86/55/109
f 84/113/113 30/90/113 62/90/113 73/113/113
f 10/79/117 41/86/117 33/3/117
f 39/121/121 22/24/121 54/24/121 66/121/121
f 47/125/125 54/24/125 22/24/125 43/125/125
f 59/82/131 79/82/131 34/3/129 2/3/129
f 10/71/133 33/3/133 45/41/133
f 68/59/137 6/52/137 38/52/137 69/59/137
f 26/79/141 57/52/141 33/3/141
f 71/145/145 8/13/145 40/13/145 72/145/145
f 14/79/149 45/86/149 33/3/149
f 76/155/155 74/155/155 40/13/153 8/13/153
f 33/3/157 57/93/157 22/71/157
f 77/9/9 12/18/162 44/18/162 78/9/9
f 14/71/165 33/3/165 49/165/165
f 81/63/169 80/63/169 44/18/169 12/18/169
f 53/38/173 33/3/173 22/79/173
f 85/179/177 83/179/177 46/38/177 14/38/177
f 18/79/181 49/86/181 33/3/181
f 87/55/109 86/55/109 48/7/185 16/7/185
f 18/71/189 33/3/189 53/93/189
f 89/195/195 88/195/195 50/6/193 18/6/193
f 51/197/197 2/3/198 34/3/198 35/197/197
f 39/121/201 66/121/201 52/15/201 20/15/201
f 63/205/205 26/206/206 58/206/206 55/205/205
f 43/125/209 24/23/209 56/23/209 47/125/209
f 63/205/205 55/205/205 56/23/217 24/23/217
f 7/13/221 13/10/221 11/165/221
f 82/227/227 70/227/227 58/206/225 26/206/225
f 85/179/229 16/7/229 48/7/229 83/179/229
f 84/113/233 73/113/233 60/47/233 28/47/233
f 64/1/237 35/197/237 34/3/237 25/3/237
f 67/89/241 75/89/241 62/90/241 30/90/241
f 60/47/245 73/113/245 62/90/245 5/46/245
f 51/197/197 35/197/197 64/1/249 32/1/249
f 89/195/195 20/15/254 52/15/254 88/195/195
f 60/47/257 1/206/257 58/206/257 70/227/257
f 82/227/227 28/47/262 60/47/262 70/227/227
f 3/5/265 17/25/265 7/49/265
f 67/89/269 32/1/269 64/1/269 75/89/269
f 21/24/273 54/24/273 47/125/273 56/23/273
f 59/82/131 4/5/278 36/5/278 79/82/131
f 29/6/281 50/6/281 88/195/281 52/15/281
f 48/7/285 9/38/285 46/38/285 83/179/285
f 22/79/289 39/6/289 20/71/289 53/86/289
f 14/71/293 49/1/293 16/79/293 85/6/293
f 14/79/297 81/6/297 12/71/297 45/86/297
f 45/47/301 12/79/301 77/6/301 10/71/301
f 10/79/305 76/6/305 8/71/305 41/86/305
f 41/23/309 8/79/309 71/6/309 6/71/309
f 6/79/313 68/6/313 4/71/313 37/86/313
f 37/15/317 4/79/317 59/6/317 2/71/317
f 2/79/321 51/6/321 32/71/321 65/86/321
f 30/71/325 65/7/325 32/79/325 67/6/325
f 30/79/329 84/6/329 28/71/329 61/86/329
f 26/71/333 61/18/333 28/79/333 82/6/333
f 26/79/337 63/6/337 24/71/337 57/86/337
f 57/13/341 24/79/341 43/6/341 22/71/341
f 81/63/345 14/38/345 46/38/345 80/63/345
f 53/5/349 20/79/349 89/6/349 18/71/349
f 13/10/353 42/10/353 78/9/353 44/18/353
f 40/13/357 74/155/357 42/10/357 13/357/357
f 18/79/361 87/6/361 16/71/361 49/86/361
f 69/59/365 36/5/365 4/5/365 68/59/365
f 21/14/369 19/5/369 29/6/369 52/15/369
f 52/15/373 66/121/373 54/24/373 21/14/373
f 17/52/377 38/52/377 72/145/377 40/13/377
f 72/145/381 38/52/381 6/52/381 71/145/381
f 27/47/389 1/206/389 60/47/389 5/389/389
f 56/23/393 55/205/393 58/206/393 1/30/393
f 76/155/155 10/10/398 42/10/398 74/155/155

